<?xml version="1.0"?>
<svg width="400pt" height="400pt">
<g>
<path d="M 182.828125 218.0 M 182.828125 218.0 C 161.0546875 218.0 145.96484375 220.4921875 137.5625 225.46875 C 129.1640625 230.44921875 124.96875 238.9453125 124.96875 250.953125 C 124.96875 260.52734375 128.1171875 268.12109375 134.421875 273.734375 C 140.72265625 279.3515625 149.2890625 282.15625 160.125 282.15625 C 175.0703125 282.15625 187.0625 276.859375 196.09375 266.265625 C 205.12109375 255.67578125 209.640625 241.5859375 209.640625 224.0 L 209.640625 218.0 M 236.59375 206.859375 L 236.59375 300.46875 L 209.640625 300.46875 L 209.640625 275.5625 C 203.484375 285.5234375 195.81640625 292.87109375 186.640625 297.609375 C 177.4609375 302.34765625 166.23046875 304.71875 152.953125 304.71875 C 136.1484375 304.71875 122.7890625 300.0078125 112.875 290.578125 C 102.96875 281.15234375 98.015625 268.53125 98.015625 252.71875 C 98.015625 234.26171875 104.19140625 220.34375 116.546875 210.96875 C 128.8984375 201.59765625 148.48828125 196.0 173.0 196.0 L 209.640625 196.90625 L 209.640625 194.265625 C 209.640625 181.86328125 205.55859375 172.265625 197.40625 165.484375 C 189.25 158.6953125 177.80078125 155.296875 163.0625 155.296875 C 153.6875 155.296875 144.55078125 156.42578125 135.65625 158.671875 C 126.76953125 160.921875 118.2265625 164.29296875 110.03125 168.78125 L 110.03125 143.875 C 119.89453125 140.06640625 129.4609375 137.2109375 138.734375 135.3125 C 148.01171875 133.41015625 157.05078125 132.453125 165.84375 132.453125 C 189.5703125 132.453125 207.296875 138.60546875 219.015625 150.90625 C 230.73046875 163.2109375 236.59375 181.86328125 236.59375 206.859375 M 80.0 22.0 C 80.0 22.0 154.0 149.0 154.0 148.0 C 154.0 147.0 125.0 181.0 125.0 181.0 " fill="none" stroke="rgb(51,51,51)" stroke-width="0.75" />
</g>
</svg>
